<svg width="118" height="38" viewBox="0 0 118 38" fill="none" xmlns="http://www.w3.org/2000/svg">
<path d="M0.9 37V9.5H7.05V13.75H7.15C7.25 12.35 7.71667 11.2167 8.55 10.35C9.38333 9.45 10.45 9 11.75 9C12.95 9 13.9833 9.43333 14.85 10.3C15.75 11.1333 16.3333 12.2333 16.6 13.6C16.7 12.2 17.1833 11.0833 18.05 10.25C18.9167 9.41667 20 9 21.3 9C22.9333 9 24.3 9.65 25.4 10.95C26.5333 12.25 27.1 13.9333 27.1 16V37H20.65V16.85C20.65 15.25 20.0167 14.45 18.75 14.45C17.55 14.45 16.95 15.25 16.95 16.85V37H11.05V16.85C11.05 15.25 10.45 14.45 9.25 14.45C7.98333 14.45 7.35 15.25 7.35 16.85V37H0.9ZM44.0305 37.5C41.5971 37.5 39.4638 37.05 37.6305 36.15C35.8305 35.2167 34.4305 33.9333 33.4305 32.3C32.4638 30.6333 31.9805 28.7 31.9805 26.5V20C31.9805 17.8 32.4638 15.8833 33.4305 14.25C34.4305 12.5833 35.8305 11.3 37.6305 10.4C39.4638 9.46667 41.5971 9 44.0305 9C46.4638 9 48.5638 9.46667 50.3305 10.4C52.1305 11.3 53.5138 12.5833 54.4805 14.25C55.4805 15.8833 55.9805 17.8 55.9805 20V25.1H39.1305V26.5C39.1305 28.2333 39.5305 29.5 40.3305 30.3C41.1638 31.1 42.3971 31.5 44.0305 31.5C45.0971 31.5 46.0305 31.3333 46.8305 31C47.6305 30.6667 48.0971 30.1667 48.2305 29.5H55.5805C55.0471 31.9 53.7305 33.8333 51.6305 35.3C49.5305 36.7667 46.9971 37.5 44.0305 37.5ZM39.1305 20V20.65L48.8305 20.55V19.9C48.8305 18.2 48.4305 16.8833 47.6305 15.95C46.8638 15.0167 45.6638 14.55 44.0305 14.55C42.3971 14.55 41.1638 15.0333 40.3305 16C39.5305 16.9667 39.1305 18.3 39.1305 20ZM63.2609 37V9.5H70.5109V14.7C70.9109 12.9333 71.7776 11.55 73.1109 10.55C74.4776 9.51667 76.1776 9 78.2109 9C80.9776 9 83.1443 9.93333 84.7109 11.8C86.2776 13.6667 87.0609 16.2333 87.0609 19.5V22.25H79.5609V20C79.5609 18.5667 79.1776 17.4667 78.4109 16.7C77.6443 15.9 76.5609 15.5 75.1609 15.5C73.7609 15.5 72.6776 15.95 71.9109 16.85C71.1443 17.7167 70.7609 18.9667 70.7609 20.6V37H63.2609ZM92.4914 37V0.499999H99.9914V19.9H103.791L109.541 9.5H117.791L110.141 22.95L117.941 37H109.541L103.741 26.2H99.9914V37H92.4914Z" fill="#FFFFFC"/>
</svg>
